PathFileType	4	(X/Y/Z)	c:/Users/goper/Files/vsCode/490R/osim_files/C15/C15_Slow_05.trc
DataRate	CameraRate	NumFrames	NumMarkers	Units                	OrigDataRate	OrigDataStartFrame	OrigNumFrames
250.00	250.00	8	36	mm	250.0	2186	2498
                Frame#	Time	LPSIS			LASIS			LTH1			LTH2			LTH3			LTH4			LLFE			LMFE			LSH1			LSH2			LSH3			LSH4			LLMAL			LMMAL			LCAL			LMTP5			LTOE			LMTP1			RPSIS			RASIS			RTH1			RTH2			RTH3			RTH4			RLFE			RMFE			RSH1			RSH2			RSH3			RSH4			RLMAL			RMMAL			RCAL			RMTP1			RTOE			RMTP5		
		X1	Y1	Z1	X2	Y2	Z2	X3	Y3	Z3	X4	Y4	Z4	X5	Y5	Z5	X6	Y6	Z6	X7	Y7	Z7	X8	Y8	Z8	X9	Y9	Z9	X10	Y10	Z10	X11	Y11	Z11	X12	Y12	Z12	X13	Y13	Z13	X14	Y14	Z14	X15	Y15	Z15	X16	Y16	Z16	X17	Y17	Z17	X18	Y18	Z18	X19	Y19	Z19	X20	Y20	Z20	X21	Y21	Z21	X22	Y22	Z22	X23	Y23	Z23	X24	Y24	Z24	X25	Y25	Z25	X26	Y26	Z26	X27	Y27	Z27	X28	Y28	Z28	X29	Y29	Z29	X30	Y30	Z30	X31	Y31	Z31	X32	Y32	Z32	X33	Y33	Z33	X34	Y34	Z34	X35	Y35	Z35	X36	Y36	Z36

2186	8.74000	0.00000	0.00000	0.00000	-3596.64673	1015.95343	359.33795	-3553.81812	621.89832	413.41721	0.00000	0.00000	0.00000	-3602.54736	633.54657	405.89386	-3608.20435	590.11273	394.33109	-3574.67651	503.98276	371.00507	0.00000	0.00000	0.00000	-3511.77393	398.08386	384.78888	-3505.77734	351.22983	384.48325	-3569.52344	389.26773	380.89236	-3561.25391	345.74948	382.50250	0.00000	0.00000	0.00000	-3520.45288	123.06351	223.08223	0.00000	0.00000	0.00000	-3622.49390	53.10328	329.32257	-3677.47339	75.05915	265.87259	-3637.74707	45.59144	208.29858	0.00000	0.00000	0.00000	-3571.72339	1010.66083	111.59427	-3597.13965	646.92102	40.98918	0.00000	0.00000	0.00000	-3653.92969	657.20038	51.61599	-3659.95142	609.35657	52.76785	0.00000	0.00000	0.00000	-3521.47095	420.80109	186.16124	-754.76379	734.83655	2361.39478	0.00000	0.00000	0.00000	0.00000	0.00000	0.00000	0.00000	0.00000	0.00000	0.00000	0.00000	0.00000	0.00000	0.00000	0.00000	-3268.33325	259.68408	179.76472	-3403.16211	83.00947	176.39343	-3429.89185	102.16560	116.00667	-3352.08862	122.85143	71.63461
2187	8.74400	-3432.34717	1035.52332	306.96960	-3599.56445	1016.04346	359.73587	-3555.00220	621.99603	413.49643	0.00000	0.00000	0.00000	-3603.94458	633.50665	406.06985	-3609.28784	589.93927	394.55319	-3575.61108	503.91949	371.20724	0.00000	0.00000	0.00000	-3512.47559	398.10266	384.97870	-3506.46094	351.31830	384.68253	-3570.15503	389.21100	381.02063	-3562.03149	345.70749	382.61340	0.00000	0.00000	0.00000	-3520.57153	123.12615	223.08716	0.00000	0.00000	0.00000	-3622.46753	53.02430	329.34470	-3677.50879	74.98023	265.87607	-3637.75537	45.54258	208.28915	0.00000	0.00000	0.00000	-3575.10693	1011.16144	111.91907	-3602.46948	647.88409	40.80256	0.00000	0.00000	0.00000	-3659.20239	658.57812	51.53677	-3665.48877	610.79504	52.76050	0.00000	0.00000	0.00000	-3527.92017	422.17685	186.22667	-754.73425	734.84222	2361.39771	0.00000	0.00000	0.00000	0.00000	0.00000	0.00000	0.00000	0.00000	0.00000	0.00000	0.00000	0.00000	0.00000	0.00000	0.00000	-3276.68018	256.52441	179.33440	-3414.60840	81.82147	175.21632	-3441.08862	101.56223	114.93478	-3363.09009	121.32372	70.57226
2188	8.74800	-3435.15967	1035.78833	306.99011	-3602.48462	1016.12274	360.13559	-3556.33740	622.13989	413.57031	0.00000	0.00000	0.00000	-3605.14282	633.33167	406.20511	-3610.43823	589.79700	394.74503	-3576.47852	503.87549	371.35550	0.00000	0.00000	0.00000	-3513.12305	398.04956	385.12967	-3507.09595	351.37555	384.81247	-3570.91748	389.14243	381.13211	-3562.56421	345.63452	382.67676	0.00000	0.00000	0.00000	-3520.65454	123.17047	223.09103	0.00000	0.00000	0.00000	-3622.47632	52.98967	329.36847	-3677.54468	74.89435	265.86810	-3637.74438	45.49269	208.27994	0.00000	0.00000	0.00000	-3578.49536	1011.64801	112.20405	-3607.83081	648.90656	40.63368	0.00000	0.00000	0.00000	-3664.48901	660.00055	51.53159	-3670.98633	612.18372	52.79103	0.00000	0.00000	0.00000	-3534.30518	423.51569	186.27475	-754.74670	734.84106	2361.39209	0.00000	0.00000	0.00000	0.00000	0.00000	0.00000	0.00000	0.00000	0.00000	0.00000	0.00000	0.00000	0.00000	0.00000	0.00000	-3285.66309	253.01448	178.27383	-3426.00049	80.48177	174.04031	-3452.42944	100.93278	113.85548	-3374.25146	119.69923	69.49624
2189	8.75200	-3438.00146	1036.06250	306.90619	-3605.33057	1016.17133	360.46930	-3557.49146	622.20819	413.61288	0.00000	0.00000	0.00000	-3606.44531	633.15564	406.31546	-3611.60376	589.63812	394.90393	-3577.36987	503.78159	371.47092	0.00000	0.00000	0.00000	-3513.87720	398.09427	385.27954	-3507.86304	351.49319	385.02783	-3571.61230	389.10837	381.19760	-3563.24121	345.57776	382.77142	0.00000	0.00000	0.00000	-3520.75244	123.21651	223.09583	0.00000	0.00000	0.00000	-3622.48755	52.94989	329.38409	-3677.55493	74.78870	265.87988	-3637.78979	45.45539	208.28252	0.00000	0.00000	0.00000	-3581.80469	1012.10199	112.50117	-3613.28979	649.92773	40.47062	0.00000	0.00000	0.00000	-3669.76392	661.42694	51.50829	-3676.50171	613.66852	52.81321	0.00000	0.00000	0.00000	-3540.66089	424.90527	186.31010	-754.72906	734.86407	2361.40649	0.00000	0.00000	0.00000	0.00000	0.00000	0.00000	0.00000	0.00000	0.00000	0.00000	0.00000	0.00000	0.00000	0.00000	0.00000	-3295.42139	250.07607	179.18640	-3437.63037	79.12126	172.87096	-3463.34448	100.06464	112.65144	-3385.49512	118.03867	68.43822
2190	8.75600	0.00000	0.00000	0.00000	-3608.13037	1016.17755	360.77768	-3558.90698	622.34735	413.66528	0.00000	0.00000	0.00000	-3607.67847	633.00885	406.42776	-3612.66650	589.44214	395.06461	-3578.24219	503.70145	371.59122	0.00000	0.00000	0.00000	-3514.65991	398.17419	385.39218	-3507.83105	352.04144	384.57446	-3572.30444	389.09464	381.25623	-3563.91138	345.56976	382.84702	0.00000	0.00000	0.00000	-3520.83398	123.26188	223.09468	0.00000	0.00000	0.00000	-3622.48096	52.89787	329.39633	-3677.60645	74.70562	265.87711	-3637.79492	45.41599	208.28143	0.00000	0.00000	0.00000	-3585.22510	1012.58600	112.76273	-3618.64966	650.92401	40.35489	0.00000	0.00000	0.00000	-3674.89697	662.78076	51.50962	-3681.88501	615.04089	52.89499	0.00000	0.00000	0.00000	-3547.01099	426.23001	186.37427	-754.70532	734.86981	2361.40210	0.00000	0.00000	0.00000	0.00000	0.00000	0.00000	0.00000	0.00000	0.00000	0.00000	0.00000	0.00000	0.00000	0.00000	0.00000	-3304.43140	246.34929	178.55576	-3449.59033	77.88522	171.71036	-3474.52588	99.26503	111.72626	-3396.92334	116.25085	67.41270
2191	8.76000	0.00000	0.00000	0.00000	-3611.05493	1016.22479	361.11124	-3560.08130	622.37756	413.70786	0.00000	0.00000	0.00000	-3609.02588	632.87628	406.54068	-3613.93335	589.32867	395.19281	-3579.10938	503.59448	371.68649	0.00000	0.00000	0.00000	-3515.34619	398.21494	385.47598	-3509.15015	351.72336	385.29297	-3572.99487	389.08588	381.34995	-3564.40356	345.53424	382.89627	0.00000	0.00000	0.00000	-3520.93506	123.30199	223.08884	0.00000	0.00000	0.00000	-3622.48047	52.86580	329.41205	-3677.62866	74.62605	265.87915	-3637.80298	45.35410	208.27907	0.00000	0.00000	0.00000	-3588.52271	1012.97583	113.02118	-3623.85986	651.84021	40.22271	0.00000	0.00000	0.00000	-3680.03052	664.14288	51.50908	-3687.25171	616.40710	52.98288	0.00000	0.00000	0.00000	-3553.32715	427.62561	186.43585	-754.72540	734.91370	2361.38794	0.00000	0.00000	0.00000	0.00000	0.00000	0.00000	0.00000	0.00000	0.00000	0.00000	0.00000	0.00000	0.00000	0.00000	0.00000	-3314.39941	242.31192	178.38882	-3461.43018	76.49747	170.73557	-3486.23486	98.49805	110.79865	-3408.47119	114.43429	66.41843
2192	8.76400	0.00000	0.00000	0.00000	-3613.97607	1016.29590	361.43594	-3561.46045	622.49896	413.72278	0.00000	0.00000	0.00000	-3610.31226	632.73877	406.60471	-3615.01514	589.13904	395.30664	-3579.98071	503.52014	371.76816	0.00000	0.00000	0.00000	-3515.87891	398.22601	385.49063	-3509.62964	351.79678	385.34494	-3573.49707	389.02417	381.40085	-3565.01294	345.56668	382.99207	0.00000	0.00000	0.00000	-3521.02319	123.35013	223.07751	0.00000	0.00000	0.00000	-3622.49048	52.85212	329.42276	-3677.64600	74.55747	265.88068	-3637.78125	45.30273	208.27420	0.00000	0.00000	0.00000	-3591.82788	1013.40491	113.25748	-3629.06177	652.75171	40.12935	0.00000	0.00000	0.00000	-3685.08521	665.45917	51.55971	-3692.63354	617.81250	53.07007	0.00000	0.00000	0.00000	-3559.54297	428.96231	186.51990	-754.69464	734.92902	2361.38062	0.00000	0.00000	0.00000	0.00000	0.00000	0.00000	0.00000	0.00000	0.00000	0.00000	0.00000	0.00000	0.00000	0.00000	0.00000	-3323.14160	238.56877	177.31792	-3473.53101	75.16828	169.61230	-3498.06152	97.70806	109.76279	-3420.03149	112.51362	65.40184
2193	8.76800	0.00000	0.00000	0.00000	-3616.77197	1016.28735	361.71796	-3562.69897	622.52460	413.76434	0.00000	0.00000	0.00000	-3611.66211	632.63623	406.67706	-3616.22144	588.99542	395.41779	-3580.88184	503.47818	371.86719	0.00000	0.00000	0.00000	-3516.46240	398.28128	385.47726	-3510.08887	351.89349	385.31778	-3574.07666	389.02383	381.42761	-3564.27124	344.20767	382.48129	0.00000	0.00000	0.00000	-3521.11499	123.36187	223.06084	0.00000	0.00000	0.00000	-3622.47168	52.81469	329.44635	-3677.62329	74.45485	265.90314	-3637.77173	45.26454	208.27133	0.00000	0.00000	0.00000	-3595.12378	1013.78363	113.51196	-3634.28052	653.64807	40.10295	0.00000	0.00000	0.00000	-3690.14331	666.76379	51.61361	-3697.92676	619.17871	53.19436	0.00000	0.00000	0.00000	-3565.72510	430.30240	186.61198	-754.71149	734.92822	2361.39746	0.00000	0.00000	0.00000	0.00000	0.00000	0.00000	0.00000	0.00000	0.00000	0.00000	0.00000	0.00000	0.00000	0.00000	0.00000	-3334.42065	233.50394	176.94682	-3485.85938	73.76752	168.59143	-3510.01904	96.94247	108.84657	-3431.86011	110.59611	64.40886
